<?xml version="1.0" standalone="no"?>
<!DOCTYPE svg PUBLIC "-//W3C//DTD SVG 20010904//EN"
 "http://www.w3.org/TR/2001/REC-SVG-20010904/DTD/svg10.dtd">
<svg version="1.0" xmlns="http://www.w3.org/2000/svg"
 width="700.000000pt" height="700.000000pt" viewBox="0 0 700.000000 700.000000"
 preserveAspectRatio="xMidYMid meet">
<metadata>
Created by potrace 1.14, written by Peter Selinger 2001-2017
</metadata>
<g transform="translate(0.000000,700.000000) scale(0.100000,-0.100000)"
fill="#000000" stroke="none">
<path d="M3280 6993 c-19 -1 -87 -8 -150 -14 -947 -90 -1846 -599 -2429 -1376
-140 -187 -217 -310 -326 -528 -602 -1192 -472 -2625 335 -3690 476 -629 1156
-1081 1915 -1273 272 -69 486 -99 775 -109 581 -19 1148 107 1675 372 216 109
340 185 528 326 444 333 793 755 1037 1254 178 364 285 724 337 1135 21 169
24 613 5 775 -77 663 -305 1239 -691 1750 -666 880 -1709 1393 -2811 1383 -91
-1 -181 -3 -200 -5z m1005 -1411 c417 -79 744 -300 918 -622 47 -87 94 -224
112 -328 22 -126 22 -2138 0 -2264 -73 -420 -379 -752 -827 -899 -206 -67
-252 -71 -892 -76 -608 -5 -764 1 -933 37 -453 95 -797 378 -932 764 -62 176
-61 156 -61 1306 0 1150 -1 1130 61 1306 80 231 231 421 447 564 200 133 442
211 722 234 25 2 322 2 660 1 574 -2 622 -4 725 -23z"/>
<path d="M2780 5165 l0 -165 365 0 365 0 0 -1105 0 -1105 165 0 165 0 0 1105
0 1105 358 2 357 3 3 163 2 162 -890 0 -890 0 0 -165z"/>
</g>
</svg>
